<svg width="960" height="540" viewBox="0 0 960 540" fill="none" xmlns="http://www.w3.org/2000/svg">
<rect width="960" height="540" fill="#28282D"/>
<path d="M330.539 269.07V269.879C330.539 271.176 330.363 272.34 330.012 273.371C329.66 274.402 329.164 275.281 328.523 276.008C327.883 276.727 327.117 277.277 326.227 277.66C325.344 278.043 324.363 278.234 323.285 278.234C322.215 278.234 321.234 278.043 320.344 277.66C319.461 277.277 318.695 276.727 318.047 276.008C317.398 275.281 316.895 274.402 316.535 273.371C316.184 272.34 316.008 271.176 316.008 269.879V269.07C316.008 267.766 316.184 266.602 316.535 265.578C316.887 264.547 317.383 263.668 318.023 262.941C318.672 262.215 319.438 261.66 320.32 261.277C321.211 260.895 322.191 260.703 323.262 260.703C324.34 260.703 325.32 260.895 326.203 261.277C327.094 261.66 327.859 262.215 328.5 262.941C329.148 263.668 329.648 264.547 330 265.578C330.359 266.602 330.539 267.766 330.539 269.07ZM326.988 269.879V269.047C326.988 268.141 326.906 267.344 326.742 266.656C326.578 265.969 326.336 265.391 326.016 264.922C325.695 264.453 325.305 264.102 324.844 263.867C324.383 263.625 323.855 263.504 323.262 263.504C322.668 263.504 322.141 263.625 321.68 263.867C321.227 264.102 320.84 264.453 320.52 264.922C320.207 265.391 319.969 265.969 319.805 266.656C319.641 267.344 319.559 268.141 319.559 269.047V269.879C319.559 270.777 319.641 271.574 319.805 272.27C319.969 272.957 320.211 273.539 320.531 274.016C320.852 274.484 321.242 274.84 321.703 275.082C322.164 275.324 322.691 275.445 323.285 275.445C323.879 275.445 324.406 275.324 324.867 275.082C325.328 274.84 325.715 274.484 326.027 274.016C326.34 273.539 326.578 272.957 326.742 272.27C326.906 271.574 326.988 270.777 326.988 269.879ZM336.234 267.758V282.875H332.859V265.32H335.988L336.234 267.758ZM344.262 271.52V271.766C344.262 272.688 344.152 273.543 343.934 274.332C343.723 275.121 343.41 275.809 342.996 276.395C342.582 276.973 342.066 277.426 341.449 277.754C340.84 278.074 340.137 278.234 339.34 278.234C338.566 278.234 337.895 278.078 337.324 277.766C336.754 277.453 336.273 277.016 335.883 276.453C335.5 275.883 335.191 275.223 334.957 274.473C334.723 273.723 334.543 272.918 334.418 272.059V271.414C334.543 270.492 334.723 269.648 334.957 268.883C335.191 268.109 335.5 267.441 335.883 266.879C336.273 266.309 336.75 265.867 337.312 265.555C337.883 265.242 338.551 265.086 339.316 265.086C340.121 265.086 340.828 265.238 341.438 265.543C342.055 265.848 342.57 266.285 342.984 266.855C343.406 267.426 343.723 268.105 343.934 268.895C344.152 269.684 344.262 270.559 344.262 271.52ZM340.875 271.766V271.52C340.875 270.98 340.828 270.484 340.734 270.031C340.648 269.57 340.508 269.168 340.312 268.824C340.125 268.48 339.875 268.215 339.562 268.027C339.258 267.832 338.887 267.734 338.449 267.734C337.988 267.734 337.594 267.809 337.266 267.957C336.945 268.105 336.684 268.32 336.48 268.602C336.277 268.883 336.125 269.219 336.023 269.609C335.922 270 335.859 270.441 335.836 270.934V272.562C335.875 273.141 335.984 273.66 336.164 274.121C336.344 274.574 336.621 274.934 336.996 275.199C337.371 275.465 337.863 275.598 338.473 275.598C338.918 275.598 339.293 275.5 339.598 275.305C339.902 275.102 340.148 274.824 340.336 274.473C340.531 274.121 340.668 273.715 340.746 273.254C340.832 272.793 340.875 272.297 340.875 271.766ZM353.215 274.496C353.215 274.254 353.145 274.035 353.004 273.84C352.863 273.645 352.602 273.465 352.219 273.301C351.844 273.129 351.301 272.973 350.59 272.832C349.949 272.691 349.352 272.516 348.797 272.305C348.25 272.086 347.773 271.824 347.367 271.52C346.969 271.215 346.656 270.855 346.43 270.441C346.203 270.02 346.09 269.539 346.09 269C346.09 268.469 346.203 267.969 346.43 267.5C346.664 267.031 346.996 266.617 347.426 266.258C347.863 265.891 348.395 265.605 349.02 265.402C349.652 265.191 350.363 265.086 351.152 265.086C352.254 265.086 353.199 265.262 353.988 265.613C354.785 265.965 355.395 266.449 355.816 267.066C356.246 267.676 356.461 268.371 356.461 269.152H353.086C353.086 268.824 353.016 268.531 352.875 268.273C352.742 268.008 352.531 267.801 352.242 267.652C351.961 267.496 351.594 267.418 351.141 267.418C350.766 267.418 350.441 267.484 350.168 267.617C349.895 267.742 349.684 267.914 349.535 268.133C349.395 268.344 349.324 268.578 349.324 268.836C349.324 269.031 349.363 269.207 349.441 269.363C349.527 269.512 349.664 269.648 349.852 269.773C350.039 269.898 350.281 270.016 350.578 270.125C350.883 270.227 351.258 270.32 351.703 270.406C352.617 270.594 353.434 270.84 354.152 271.145C354.871 271.441 355.441 271.848 355.863 272.363C356.285 272.871 356.496 273.539 356.496 274.367C356.496 274.93 356.371 275.445 356.121 275.914C355.871 276.383 355.512 276.793 355.043 277.145C354.574 277.488 354.012 277.758 353.355 277.953C352.707 278.141 351.977 278.234 351.164 278.234C349.984 278.234 348.984 278.023 348.164 277.602C347.352 277.18 346.734 276.645 346.312 275.996C345.898 275.34 345.691 274.668 345.691 273.98H348.891C348.906 274.441 349.023 274.812 349.242 275.094C349.469 275.375 349.754 275.578 350.098 275.703C350.449 275.828 350.828 275.891 351.234 275.891C351.672 275.891 352.035 275.832 352.324 275.715C352.613 275.59 352.832 275.426 352.98 275.223C353.137 275.012 353.215 274.77 353.215 274.496ZM358.852 276.371C358.852 275.871 359.023 275.453 359.367 275.117C359.719 274.781 360.184 274.613 360.762 274.613C361.34 274.613 361.801 274.781 362.145 275.117C362.496 275.453 362.672 275.871 362.672 276.371C362.672 276.871 362.496 277.289 362.145 277.625C361.801 277.961 361.34 278.129 360.762 278.129C360.184 278.129 359.719 277.961 359.367 277.625C359.023 277.289 358.852 276.871 358.852 276.371ZM365.812 276.371C365.812 275.871 365.984 275.453 366.328 275.117C366.68 274.781 367.145 274.613 367.723 274.613C368.301 274.613 368.762 274.781 369.105 275.117C369.457 275.453 369.633 275.871 369.633 276.371C369.633 276.871 369.457 277.289 369.105 277.625C368.762 277.961 368.301 278.129 367.723 278.129C367.145 278.129 366.68 277.961 366.328 277.625C365.984 277.289 365.812 276.871 365.812 276.371ZM372.773 276.371C372.773 275.871 372.945 275.453 373.289 275.117C373.641 274.781 374.105 274.613 374.684 274.613C375.262 274.613 375.723 274.781 376.066 275.117C376.418 275.453 376.594 275.871 376.594 276.371C376.594 276.871 376.418 277.289 376.066 277.625C375.723 277.961 375.262 278.129 374.684 278.129C374.105 278.129 373.641 277.961 373.289 277.625C372.945 277.289 372.773 276.871 372.773 276.371ZM389.109 265.32V278H385.723V265.32H389.109ZM385.512 262.016C385.512 261.523 385.684 261.117 386.027 260.797C386.371 260.477 386.832 260.316 387.41 260.316C387.98 260.316 388.438 260.477 388.781 260.797C389.133 261.117 389.309 261.523 389.309 262.016C389.309 262.508 389.133 262.914 388.781 263.234C388.438 263.555 387.98 263.715 387.41 263.715C386.832 263.715 386.371 263.555 386.027 263.234C385.684 262.914 385.512 262.508 385.512 262.016ZM395.273 267.945V278H391.887V265.32H395.062L395.273 267.945ZM394.805 271.215H393.867C393.867 270.332 393.973 269.52 394.184 268.777C394.402 268.027 394.719 267.379 395.133 266.832C395.555 266.277 396.074 265.848 396.691 265.543C397.309 265.238 398.023 265.086 398.836 265.086C399.398 265.086 399.914 265.172 400.383 265.344C400.852 265.508 401.254 265.77 401.59 266.129C401.934 266.48 402.199 266.941 402.387 267.512C402.574 268.074 402.668 268.75 402.668 269.539V278H399.293V269.914C399.293 269.336 399.215 268.891 399.059 268.578C398.902 268.266 398.68 268.047 398.391 267.922C398.109 267.797 397.77 267.734 397.371 267.734C396.934 267.734 396.551 267.824 396.223 268.004C395.902 268.184 395.637 268.434 395.426 268.754C395.215 269.066 395.059 269.434 394.957 269.855C394.855 270.277 394.805 270.73 394.805 271.215ZM402.352 270.828L401.145 270.98C401.145 270.152 401.246 269.383 401.449 268.672C401.66 267.961 401.969 267.336 402.375 266.797C402.789 266.258 403.301 265.84 403.91 265.543C404.52 265.238 405.223 265.086 406.02 265.086C406.629 265.086 407.184 265.176 407.684 265.355C408.184 265.527 408.609 265.805 408.961 266.188C409.32 266.562 409.594 267.055 409.781 267.664C409.977 268.273 410.074 269.02 410.074 269.902V278H406.688V269.902C406.688 269.316 406.609 268.871 406.453 268.566C406.305 268.254 406.086 268.039 405.797 267.922C405.516 267.797 405.18 267.734 404.789 267.734C404.383 267.734 404.027 267.816 403.723 267.98C403.418 268.137 403.164 268.355 402.961 268.637C402.758 268.918 402.605 269.246 402.504 269.621C402.402 269.988 402.352 270.391 402.352 270.828ZM419.531 275.141V269.492C419.531 269.086 419.465 268.738 419.332 268.449C419.199 268.152 418.992 267.922 418.711 267.758C418.438 267.594 418.082 267.512 417.645 267.512C417.27 267.512 416.945 267.578 416.672 267.711C416.398 267.836 416.188 268.02 416.039 268.262C415.891 268.496 415.816 268.773 415.816 269.094H412.441C412.441 268.555 412.566 268.043 412.816 267.559C413.066 267.074 413.43 266.648 413.906 266.281C414.383 265.906 414.949 265.613 415.605 265.402C416.27 265.191 417.012 265.086 417.832 265.086C418.816 265.086 419.691 265.25 420.457 265.578C421.223 265.906 421.824 266.398 422.262 267.055C422.707 267.711 422.93 268.531 422.93 269.516V274.941C422.93 275.637 422.973 276.207 423.059 276.652C423.145 277.09 423.27 277.473 423.434 277.801V278H420.023C419.859 277.656 419.734 277.227 419.648 276.711C419.57 276.188 419.531 275.664 419.531 275.141ZM419.977 270.277L420 272.188H418.113C417.668 272.188 417.281 272.238 416.953 272.34C416.625 272.441 416.355 272.586 416.145 272.773C415.934 272.953 415.777 273.164 415.676 273.406C415.582 273.648 415.535 273.914 415.535 274.203C415.535 274.492 415.602 274.754 415.734 274.988C415.867 275.215 416.059 275.395 416.309 275.527C416.559 275.652 416.852 275.715 417.188 275.715C417.695 275.715 418.137 275.613 418.512 275.41C418.887 275.207 419.176 274.957 419.379 274.66C419.59 274.363 419.699 274.082 419.707 273.816L420.598 275.246C420.473 275.566 420.301 275.898 420.082 276.242C419.871 276.586 419.602 276.91 419.273 277.215C418.945 277.512 418.551 277.758 418.09 277.953C417.629 278.141 417.082 278.234 416.449 278.234C415.645 278.234 414.914 278.074 414.258 277.754C413.609 277.426 413.094 276.977 412.711 276.406C412.336 275.828 412.148 275.172 412.148 274.438C412.148 273.773 412.273 273.184 412.523 272.668C412.773 272.152 413.141 271.719 413.625 271.367C414.117 271.008 414.73 270.738 415.465 270.559C416.199 270.371 417.051 270.277 418.02 270.277H419.977ZM433.559 265.32H436.617V277.578C436.617 278.734 436.359 279.715 435.844 280.52C435.336 281.332 434.625 281.945 433.711 282.359C432.797 282.781 431.734 282.992 430.523 282.992C429.992 282.992 429.43 282.922 428.836 282.781C428.25 282.641 427.688 282.422 427.148 282.125C426.617 281.828 426.172 281.453 425.812 281L427.301 279.008C427.691 279.461 428.145 279.812 428.66 280.062C429.176 280.32 429.746 280.449 430.371 280.449C430.98 280.449 431.496 280.336 431.918 280.109C432.34 279.891 432.664 279.566 432.891 279.137C433.117 278.715 433.23 278.203 433.23 277.602V268.25L433.559 265.32ZM425.027 271.812V271.566C425.027 270.598 425.145 269.719 425.379 268.93C425.621 268.133 425.961 267.449 426.398 266.879C426.844 266.309 427.383 265.867 428.016 265.555C428.648 265.242 429.363 265.086 430.16 265.086C431.004 265.086 431.711 265.242 432.281 265.555C432.852 265.867 433.32 266.312 433.688 266.891C434.055 267.461 434.34 268.137 434.543 268.918C434.754 269.691 434.918 270.539 435.035 271.461V272C434.918 272.883 434.742 273.703 434.508 274.461C434.273 275.219 433.965 275.883 433.582 276.453C433.199 277.016 432.723 277.453 432.152 277.766C431.59 278.078 430.918 278.234 430.137 278.234C429.355 278.234 428.648 278.074 428.016 277.754C427.391 277.434 426.855 276.984 426.41 276.406C425.965 275.828 425.621 275.148 425.379 274.367C425.145 273.586 425.027 272.734 425.027 271.812ZM428.402 271.566V271.812C428.402 272.336 428.453 272.824 428.555 273.277C428.656 273.73 428.812 274.133 429.023 274.484C429.242 274.828 429.512 275.098 429.832 275.293C430.16 275.48 430.547 275.574 430.992 275.574C431.609 275.574 432.113 275.445 432.504 275.188C432.895 274.922 433.188 274.559 433.383 274.098C433.578 273.637 433.691 273.105 433.723 272.504V270.969C433.707 270.477 433.641 270.035 433.523 269.645C433.406 269.246 433.242 268.906 433.031 268.625C432.82 268.344 432.547 268.125 432.211 267.969C431.875 267.812 431.477 267.734 431.016 267.734C430.57 267.734 430.184 267.836 429.855 268.039C429.535 268.234 429.266 268.504 429.047 268.848C428.836 269.191 428.676 269.598 428.566 270.066C428.457 270.527 428.402 271.027 428.402 271.566ZM445.078 278.234C444.094 278.234 443.211 278.078 442.43 277.766C441.648 277.445 440.984 277.004 440.438 276.441C439.898 275.879 439.484 275.227 439.195 274.484C438.906 273.734 438.762 272.938 438.762 272.094V271.625C438.762 270.664 438.898 269.785 439.172 268.988C439.445 268.191 439.836 267.5 440.344 266.914C440.859 266.328 441.484 265.879 442.219 265.566C442.953 265.246 443.781 265.086 444.703 265.086C445.602 265.086 446.398 265.234 447.094 265.531C447.789 265.828 448.371 266.25 448.84 266.797C449.316 267.344 449.676 268 449.918 268.766C450.16 269.523 450.281 270.367 450.281 271.297V272.703H440.203V270.453H446.965V270.195C446.965 269.727 446.879 269.309 446.707 268.941C446.543 268.566 446.293 268.27 445.957 268.051C445.621 267.832 445.191 267.723 444.668 267.723C444.223 267.723 443.84 267.82 443.52 268.016C443.199 268.211 442.938 268.484 442.734 268.836C442.539 269.188 442.391 269.602 442.289 270.078C442.195 270.547 442.148 271.062 442.148 271.625V272.094C442.148 272.602 442.219 273.07 442.359 273.5C442.508 273.93 442.715 274.301 442.98 274.613C443.254 274.926 443.582 275.168 443.965 275.34C444.355 275.512 444.797 275.598 445.289 275.598C445.898 275.598 446.465 275.48 446.988 275.246C447.52 275.004 447.977 274.641 448.359 274.156L450 275.938C449.734 276.32 449.371 276.688 448.91 277.039C448.457 277.391 447.91 277.68 447.27 277.906C446.629 278.125 445.898 278.234 445.078 278.234ZM455.578 267.945V278H452.191V265.32H455.367L455.578 267.945ZM455.109 271.215H454.172C454.172 270.332 454.277 269.52 454.488 268.777C454.707 268.027 455.023 267.379 455.438 266.832C455.859 266.277 456.379 265.848 456.996 265.543C457.613 265.238 458.328 265.086 459.141 265.086C459.703 265.086 460.219 265.172 460.688 265.344C461.156 265.508 461.559 265.77 461.895 266.129C462.238 266.48 462.504 266.941 462.691 267.512C462.879 268.074 462.973 268.75 462.973 269.539V278H459.598V269.914C459.598 269.336 459.52 268.891 459.363 268.578C459.207 268.266 458.984 268.047 458.695 267.922C458.414 267.797 458.074 267.734 457.676 267.734C457.238 267.734 456.855 267.824 456.527 268.004C456.207 268.184 455.941 268.434 455.73 268.754C455.52 269.066 455.363 269.434 455.262 269.855C455.16 270.277 455.109 270.73 455.109 271.215ZM462.656 270.828L461.449 270.98C461.449 270.152 461.551 269.383 461.754 268.672C461.965 267.961 462.273 267.336 462.68 266.797C463.094 266.258 463.605 265.84 464.215 265.543C464.824 265.238 465.527 265.086 466.324 265.086C466.934 265.086 467.488 265.176 467.988 265.355C468.488 265.527 468.914 265.805 469.266 266.188C469.625 266.562 469.898 267.055 470.086 267.664C470.281 268.273 470.379 269.02 470.379 269.902V278H466.992V269.902C466.992 269.316 466.914 268.871 466.758 268.566C466.609 268.254 466.391 268.039 466.102 267.922C465.82 267.797 465.484 267.734 465.094 267.734C464.688 267.734 464.332 267.816 464.027 267.98C463.723 268.137 463.469 268.355 463.266 268.637C463.062 268.918 462.91 269.246 462.809 269.621C462.707 269.988 462.656 270.391 462.656 270.828ZM482.273 268.027V278H478.898V265.32H482.062L482.273 268.027ZM481.781 271.215H480.867C480.867 270.277 480.988 269.434 481.23 268.684C481.473 267.926 481.812 267.281 482.25 266.75C482.688 266.211 483.207 265.801 483.809 265.52C484.418 265.23 485.098 265.086 485.848 265.086C486.441 265.086 486.984 265.172 487.477 265.344C487.969 265.516 488.391 265.789 488.742 266.164C489.102 266.539 489.375 267.035 489.562 267.652C489.758 268.27 489.855 269.023 489.855 269.914V278H486.457V269.902C486.457 269.34 486.379 268.902 486.223 268.59C486.066 268.277 485.836 268.059 485.531 267.934C485.234 267.801 484.867 267.734 484.43 267.734C483.977 267.734 483.582 267.824 483.246 268.004C482.918 268.184 482.645 268.434 482.426 268.754C482.215 269.066 482.055 269.434 481.945 269.855C481.836 270.277 481.781 270.73 481.781 271.215ZM499.266 275.141V269.492C499.266 269.086 499.199 268.738 499.066 268.449C498.934 268.152 498.727 267.922 498.445 267.758C498.172 267.594 497.816 267.512 497.379 267.512C497.004 267.512 496.68 267.578 496.406 267.711C496.133 267.836 495.922 268.02 495.773 268.262C495.625 268.496 495.551 268.773 495.551 269.094H492.176C492.176 268.555 492.301 268.043 492.551 267.559C492.801 267.074 493.164 266.648 493.641 266.281C494.117 265.906 494.684 265.613 495.34 265.402C496.004 265.191 496.746 265.086 497.566 265.086C498.551 265.086 499.426 265.25 500.191 265.578C500.957 265.906 501.559 266.398 501.996 267.055C502.441 267.711 502.664 268.531 502.664 269.516V274.941C502.664 275.637 502.707 276.207 502.793 276.652C502.879 277.09 503.004 277.473 503.168 277.801V278H499.758C499.594 277.656 499.469 277.227 499.383 276.711C499.305 276.188 499.266 275.664 499.266 275.141ZM499.711 270.277L499.734 272.188H497.848C497.402 272.188 497.016 272.238 496.688 272.34C496.359 272.441 496.09 272.586 495.879 272.773C495.668 272.953 495.512 273.164 495.41 273.406C495.316 273.648 495.27 273.914 495.27 274.203C495.27 274.492 495.336 274.754 495.469 274.988C495.602 275.215 495.793 275.395 496.043 275.527C496.293 275.652 496.586 275.715 496.922 275.715C497.43 275.715 497.871 275.613 498.246 275.41C498.621 275.207 498.91 274.957 499.113 274.66C499.324 274.363 499.434 274.082 499.441 273.816L500.332 275.246C500.207 275.566 500.035 275.898 499.816 276.242C499.605 276.586 499.336 276.91 499.008 277.215C498.68 277.512 498.285 277.758 497.824 277.953C497.363 278.141 496.816 278.234 496.184 278.234C495.379 278.234 494.648 278.074 493.992 277.754C493.344 277.426 492.828 276.977 492.445 276.406C492.07 275.828 491.883 275.172 491.883 274.438C491.883 273.773 492.008 273.184 492.258 272.668C492.508 272.152 492.875 271.719 493.359 271.367C493.852 271.008 494.465 270.738 495.199 270.559C495.934 270.371 496.785 270.277 497.754 270.277H499.711ZM500.016 260.059L501.961 260.188C501.961 260.758 501.848 261.277 501.621 261.746C501.395 262.207 501.082 262.578 500.684 262.859C500.285 263.133 499.828 263.27 499.312 263.27C498.938 263.27 498.613 263.219 498.34 263.117C498.074 263.016 497.828 262.898 497.602 262.766C497.375 262.625 497.141 262.504 496.898 262.402C496.664 262.301 496.395 262.25 496.09 262.25C495.816 262.25 495.582 262.348 495.387 262.543C495.199 262.738 495.105 263.02 495.105 263.387L493.148 263.281C493.148 262.719 493.262 262.203 493.488 261.734C493.715 261.266 494.027 260.891 494.426 260.609C494.824 260.32 495.277 260.176 495.785 260.176C496.105 260.176 496.398 260.23 496.664 260.34C496.93 260.441 497.184 260.559 497.426 260.691C497.676 260.824 497.93 260.941 498.188 261.043C498.445 261.145 498.719 261.195 499.008 261.195C499.281 261.195 499.516 261.098 499.711 260.902C499.914 260.699 500.016 260.418 500.016 260.059ZM504.727 271.789V271.543C504.727 270.613 504.859 269.758 505.125 268.977C505.391 268.188 505.777 267.504 506.285 266.926C506.793 266.348 507.418 265.898 508.16 265.578C508.902 265.25 509.754 265.086 510.715 265.086C511.676 265.086 512.531 265.25 513.281 265.578C514.031 265.898 514.66 266.348 515.168 266.926C515.684 267.504 516.074 268.188 516.34 268.977C516.605 269.758 516.738 270.613 516.738 271.543V271.789C516.738 272.711 516.605 273.566 516.34 274.355C516.074 275.137 515.684 275.82 515.168 276.406C514.66 276.984 514.035 277.434 513.293 277.754C512.551 278.074 511.699 278.234 510.738 278.234C509.777 278.234 508.922 278.074 508.172 277.754C507.43 277.434 506.801 276.984 506.285 276.406C505.777 275.82 505.391 275.137 505.125 274.355C504.859 273.566 504.727 272.711 504.727 271.789ZM508.102 271.543V271.789C508.102 272.32 508.148 272.816 508.242 273.277C508.336 273.738 508.484 274.145 508.688 274.496C508.898 274.84 509.172 275.109 509.508 275.305C509.844 275.5 510.254 275.598 510.738 275.598C511.207 275.598 511.609 275.5 511.945 275.305C512.281 275.109 512.551 274.84 512.754 274.496C512.957 274.145 513.105 273.738 513.199 273.277C513.301 272.816 513.352 272.32 513.352 271.789V271.543C513.352 271.027 513.301 270.543 513.199 270.09C513.105 269.629 512.953 269.223 512.742 268.871C512.539 268.512 512.27 268.23 511.934 268.027C511.598 267.824 511.191 267.723 510.715 267.723C510.238 267.723 509.832 267.824 509.496 268.027C509.168 268.23 508.898 268.512 508.688 268.871C508.484 269.223 508.336 269.629 508.242 270.09C508.148 270.543 508.102 271.027 508.102 271.543ZM530.625 278.234C529.641 278.234 528.758 278.078 527.977 277.766C527.195 277.445 526.531 277.004 525.984 276.441C525.445 275.879 525.031 275.227 524.742 274.484C524.453 273.734 524.309 272.938 524.309 272.094V271.625C524.309 270.664 524.445 269.785 524.719 268.988C524.992 268.191 525.383 267.5 525.891 266.914C526.406 266.328 527.031 265.879 527.766 265.566C528.5 265.246 529.328 265.086 530.25 265.086C531.148 265.086 531.945 265.234 532.641 265.531C533.336 265.828 533.918 266.25 534.387 266.797C534.863 267.344 535.223 268 535.465 268.766C535.707 269.523 535.828 270.367 535.828 271.297V272.703H525.75V270.453H532.512V270.195C532.512 269.727 532.426 269.309 532.254 268.941C532.09 268.566 531.84 268.27 531.504 268.051C531.168 267.832 530.738 267.723 530.215 267.723C529.77 267.723 529.387 267.82 529.066 268.016C528.746 268.211 528.484 268.484 528.281 268.836C528.086 269.188 527.938 269.602 527.836 270.078C527.742 270.547 527.695 271.062 527.695 271.625V272.094C527.695 272.602 527.766 273.07 527.906 273.5C528.055 273.93 528.262 274.301 528.527 274.613C528.801 274.926 529.129 275.168 529.512 275.34C529.902 275.512 530.344 275.598 530.836 275.598C531.445 275.598 532.012 275.48 532.535 275.246C533.066 275.004 533.523 274.641 533.906 274.156L535.547 275.938C535.281 276.32 534.918 276.688 534.457 277.039C534.004 277.391 533.457 277.68 532.816 277.906C532.176 278.125 531.445 278.234 530.625 278.234ZM541.055 268.027V278H537.68V265.32H540.844L541.055 268.027ZM540.562 271.215H539.648C539.648 270.277 539.77 269.434 540.012 268.684C540.254 267.926 540.594 267.281 541.031 266.75C541.469 266.211 541.988 265.801 542.59 265.52C543.199 265.23 543.879 265.086 544.629 265.086C545.223 265.086 545.766 265.172 546.258 265.344C546.75 265.516 547.172 265.789 547.523 266.164C547.883 266.539 548.156 267.035 548.344 267.652C548.539 268.27 548.637 269.023 548.637 269.914V278H545.238V269.902C545.238 269.34 545.16 268.902 545.004 268.59C544.848 268.277 544.617 268.059 544.312 267.934C544.016 267.801 543.648 267.734 543.211 267.734C542.758 267.734 542.363 267.824 542.027 268.004C541.699 268.184 541.426 268.434 541.207 268.754C540.996 269.066 540.836 269.434 540.727 269.855C540.617 270.277 540.562 270.73 540.562 271.215ZM556.441 275.598C556.855 275.598 557.223 275.52 557.543 275.363C557.863 275.199 558.113 274.973 558.293 274.684C558.48 274.387 558.578 274.039 558.586 273.641H561.762C561.754 274.531 561.516 275.324 561.047 276.02C560.578 276.707 559.949 277.25 559.16 277.648C558.371 278.039 557.488 278.234 556.512 278.234C555.527 278.234 554.668 278.07 553.934 277.742C553.207 277.414 552.602 276.961 552.117 276.383C551.633 275.797 551.27 275.117 551.027 274.344C550.785 273.562 550.664 272.727 550.664 271.836V271.496C550.664 270.598 550.785 269.762 551.027 268.988C551.27 268.207 551.633 267.527 552.117 266.949C552.602 266.363 553.207 265.906 553.934 265.578C554.66 265.25 555.512 265.086 556.488 265.086C557.527 265.086 558.438 265.285 559.219 265.684C560.008 266.082 560.625 266.652 561.07 267.395C561.523 268.129 561.754 269 561.762 270.008H558.586C558.578 269.586 558.488 269.203 558.316 268.859C558.152 268.516 557.91 268.242 557.59 268.039C557.277 267.828 556.891 267.723 556.43 267.723C555.938 267.723 555.535 267.828 555.223 268.039C554.91 268.242 554.668 268.523 554.496 268.883C554.324 269.234 554.203 269.637 554.133 270.09C554.07 270.535 554.039 271.004 554.039 271.496V271.836C554.039 272.328 554.07 272.801 554.133 273.254C554.195 273.707 554.312 274.109 554.484 274.461C554.664 274.812 554.91 275.09 555.223 275.293C555.535 275.496 555.941 275.598 556.441 275.598ZM563.18 271.789V271.543C563.18 270.613 563.312 269.758 563.578 268.977C563.844 268.188 564.23 267.504 564.738 266.926C565.246 266.348 565.871 265.898 566.613 265.578C567.355 265.25 568.207 265.086 569.168 265.086C570.129 265.086 570.984 265.25 571.734 265.578C572.484 265.898 573.113 266.348 573.621 266.926C574.137 267.504 574.527 268.188 574.793 268.977C575.059 269.758 575.191 270.613 575.191 271.543V271.789C575.191 272.711 575.059 273.566 574.793 274.355C574.527 275.137 574.137 275.82 573.621 276.406C573.113 276.984 572.488 277.434 571.746 277.754C571.004 278.074 570.152 278.234 569.191 278.234C568.23 278.234 567.375 278.074 566.625 277.754C565.883 277.434 565.254 276.984 564.738 276.406C564.23 275.82 563.844 275.137 563.578 274.355C563.312 273.566 563.18 272.711 563.18 271.789ZM566.555 271.543V271.789C566.555 272.32 566.602 272.816 566.695 273.277C566.789 273.738 566.938 274.145 567.141 274.496C567.352 274.84 567.625 275.109 567.961 275.305C568.297 275.5 568.707 275.598 569.191 275.598C569.66 275.598 570.062 275.5 570.398 275.305C570.734 275.109 571.004 274.84 571.207 274.496C571.41 274.145 571.559 273.738 571.652 273.277C571.754 272.816 571.805 272.32 571.805 271.789V271.543C571.805 271.027 571.754 270.543 571.652 270.09C571.559 269.629 571.406 269.223 571.195 268.871C570.992 268.512 570.723 268.23 570.387 268.027C570.051 267.824 569.645 267.723 569.168 267.723C568.691 267.723 568.285 267.824 567.949 268.027C567.621 268.23 567.352 268.512 567.141 268.871C566.938 269.223 566.789 269.629 566.695 270.09C566.602 270.543 566.555 271.027 566.555 271.543ZM580.57 268.027V278H577.195V265.32H580.359L580.57 268.027ZM580.078 271.215H579.164C579.164 270.277 579.285 269.434 579.527 268.684C579.77 267.926 580.109 267.281 580.547 266.75C580.984 266.211 581.504 265.801 582.105 265.52C582.715 265.23 583.395 265.086 584.145 265.086C584.738 265.086 585.281 265.172 585.773 265.344C586.266 265.516 586.688 265.789 587.039 266.164C587.398 266.539 587.672 267.035 587.859 267.652C588.055 268.27 588.152 269.023 588.152 269.914V278H584.754V269.902C584.754 269.34 584.676 268.902 584.52 268.59C584.363 268.277 584.133 268.059 583.828 267.934C583.531 267.801 583.164 267.734 582.727 267.734C582.273 267.734 581.879 267.824 581.543 268.004C581.215 268.184 580.941 268.434 580.723 268.754C580.512 269.066 580.352 269.434 580.242 269.855C580.133 270.277 580.078 270.73 580.078 271.215ZM596.93 265.32V267.711H589.547V265.32H596.93ZM591.375 262.191H594.75V274.18C594.75 274.547 594.797 274.828 594.891 275.023C594.992 275.219 595.141 275.355 595.336 275.434C595.531 275.504 595.777 275.539 596.074 275.539C596.285 275.539 596.473 275.531 596.637 275.516C596.809 275.492 596.953 275.469 597.07 275.445L597.082 277.93C596.793 278.023 596.48 278.098 596.145 278.152C595.809 278.207 595.438 278.234 595.031 278.234C594.289 278.234 593.641 278.113 593.086 277.871C592.539 277.621 592.117 277.223 591.82 276.676C591.523 276.129 591.375 275.41 591.375 274.52V262.191ZM602.227 268.086V278H598.852V265.32H602.027L602.227 268.086ZM606.047 265.238L605.988 268.367C605.824 268.344 605.625 268.324 605.391 268.309C605.164 268.285 604.957 268.273 604.77 268.273C604.293 268.273 603.879 268.336 603.527 268.461C603.184 268.578 602.895 268.754 602.66 268.988C602.434 269.223 602.262 269.508 602.145 269.844C602.035 270.18 601.973 270.562 601.957 270.992L601.277 270.781C601.277 269.961 601.359 269.207 601.523 268.52C601.688 267.824 601.926 267.219 602.238 266.703C602.559 266.188 602.949 265.789 603.41 265.508C603.871 265.227 604.398 265.086 604.992 265.086C605.18 265.086 605.371 265.102 605.566 265.133C605.762 265.156 605.922 265.191 606.047 265.238ZM614.086 275.141V269.492C614.086 269.086 614.02 268.738 613.887 268.449C613.754 268.152 613.547 267.922 613.266 267.758C612.992 267.594 612.637 267.512 612.199 267.512C611.824 267.512 611.5 267.578 611.227 267.711C610.953 267.836 610.742 268.02 610.594 268.262C610.445 268.496 610.371 268.773 610.371 269.094H606.996C606.996 268.555 607.121 268.043 607.371 267.559C607.621 267.074 607.984 266.648 608.461 266.281C608.938 265.906 609.504 265.613 610.16 265.402C610.824 265.191 611.566 265.086 612.387 265.086C613.371 265.086 614.246 265.25 615.012 265.578C615.777 265.906 616.379 266.398 616.816 267.055C617.262 267.711 617.484 268.531 617.484 269.516V274.941C617.484 275.637 617.527 276.207 617.613 276.652C617.699 277.09 617.824 277.473 617.988 277.801V278H614.578C614.414 277.656 614.289 277.227 614.203 276.711C614.125 276.188 614.086 275.664 614.086 275.141ZM614.531 270.277L614.555 272.188H612.668C612.223 272.188 611.836 272.238 611.508 272.34C611.18 272.441 610.91 272.586 610.699 272.773C610.488 272.953 610.332 273.164 610.23 273.406C610.137 273.648 610.09 273.914 610.09 274.203C610.09 274.492 610.156 274.754 610.289 274.988C610.422 275.215 610.613 275.395 610.863 275.527C611.113 275.652 611.406 275.715 611.742 275.715C612.25 275.715 612.691 275.613 613.066 275.41C613.441 275.207 613.73 274.957 613.934 274.66C614.145 274.363 614.254 274.082 614.262 273.816L615.152 275.246C615.027 275.566 614.855 275.898 614.637 276.242C614.426 276.586 614.156 276.91 613.828 277.215C613.5 277.512 613.105 277.758 612.645 277.953C612.184 278.141 611.637 278.234 611.004 278.234C610.199 278.234 609.469 278.074 608.812 277.754C608.164 277.426 607.648 276.977 607.266 276.406C606.891 275.828 606.703 275.172 606.703 274.438C606.703 273.773 606.828 273.184 607.078 272.668C607.328 272.152 607.695 271.719 608.18 271.367C608.672 271.008 609.285 270.738 610.02 270.559C610.754 270.371 611.605 270.277 612.574 270.277H614.531ZM627.574 275.234V260H630.973V278H627.914L627.574 275.234ZM619.559 271.812V271.566C619.559 270.598 619.668 269.719 619.887 268.93C620.105 268.133 620.426 267.449 620.848 266.879C621.27 266.309 621.789 265.867 622.406 265.555C623.023 265.242 623.727 265.086 624.516 265.086C625.258 265.086 625.906 265.242 626.461 265.555C627.023 265.867 627.5 266.312 627.891 266.891C628.289 267.461 628.609 268.137 628.852 268.918C629.094 269.691 629.27 270.539 629.379 271.461V272C629.27 272.883 629.094 273.703 628.852 274.461C628.609 275.219 628.289 275.883 627.891 276.453C627.5 277.016 627.023 277.453 626.461 277.766C625.898 278.078 625.242 278.234 624.492 278.234C623.703 278.234 623 278.074 622.383 277.754C621.773 277.434 621.258 276.984 620.836 276.406C620.422 275.828 620.105 275.148 619.887 274.367C619.668 273.586 619.559 272.734 619.559 271.812ZM622.934 271.566V271.812C622.934 272.336 622.973 272.824 623.051 273.277C623.137 273.73 623.273 274.133 623.461 274.484C623.656 274.828 623.906 275.098 624.211 275.293C624.523 275.48 624.902 275.574 625.348 275.574C625.926 275.574 626.402 275.445 626.777 275.188C627.152 274.922 627.438 274.559 627.633 274.098C627.836 273.637 627.953 273.105 627.984 272.504V270.969C627.961 270.477 627.891 270.035 627.773 269.645C627.664 269.246 627.5 268.906 627.281 268.625C627.07 268.344 626.805 268.125 626.484 267.969C626.172 267.812 625.801 267.734 625.371 267.734C624.934 267.734 624.559 267.836 624.246 268.039C623.934 268.234 623.68 268.504 623.484 268.848C623.297 269.191 623.156 269.598 623.062 270.066C622.977 270.527 622.934 271.027 622.934 271.566ZM640.453 275.141V269.492C640.453 269.086 640.387 268.738 640.254 268.449C640.121 268.152 639.914 267.922 639.633 267.758C639.359 267.594 639.004 267.512 638.566 267.512C638.191 267.512 637.867 267.578 637.594 267.711C637.32 267.836 637.109 268.02 636.961 268.262C636.812 268.496 636.738 268.773 636.738 269.094H633.363C633.363 268.555 633.488 268.043 633.738 267.559C633.988 267.074 634.352 266.648 634.828 266.281C635.305 265.906 635.871 265.613 636.527 265.402C637.191 265.191 637.934 265.086 638.754 265.086C639.738 265.086 640.613 265.25 641.379 265.578C642.145 265.906 642.746 266.398 643.184 267.055C643.629 267.711 643.852 268.531 643.852 269.516V274.941C643.852 275.637 643.895 276.207 643.98 276.652C644.066 277.09 644.191 277.473 644.355 277.801V278H640.945C640.781 277.656 640.656 277.227 640.57 276.711C640.492 276.188 640.453 275.664 640.453 275.141ZM640.898 270.277L640.922 272.188H639.035C638.59 272.188 638.203 272.238 637.875 272.34C637.547 272.441 637.277 272.586 637.066 272.773C636.855 272.953 636.699 273.164 636.598 273.406C636.504 273.648 636.457 273.914 636.457 274.203C636.457 274.492 636.523 274.754 636.656 274.988C636.789 275.215 636.98 275.395 637.23 275.527C637.48 275.652 637.773 275.715 638.109 275.715C638.617 275.715 639.059 275.613 639.434 275.41C639.809 275.207 640.098 274.957 640.301 274.66C640.512 274.363 640.621 274.082 640.629 273.816L641.52 275.246C641.395 275.566 641.223 275.898 641.004 276.242C640.793 276.586 640.523 276.91 640.195 277.215C639.867 277.512 639.473 277.758 639.012 277.953C638.551 278.141 638.004 278.234 637.371 278.234C636.566 278.234 635.836 278.074 635.18 277.754C634.531 277.426 634.016 276.977 633.633 276.406C633.258 275.828 633.07 275.172 633.07 274.438C633.07 273.773 633.195 273.184 633.445 272.668C633.695 272.152 634.062 271.719 634.547 271.367C635.039 271.008 635.652 270.738 636.387 270.559C637.121 270.371 637.973 270.277 638.941 270.277H640.898Z" fill="#EAEAEA"/>
</svg>
